Coordinates
version=1
nRows=11
nColumns=40
inDegrees=yes

Units are S.I. units (second, meters, Newtons, ...)
If the header above contains a line with 'inDegrees', this indicates whether rotational values are in degrees (yes) or radians (no).

endheader
time	pelvis_tilt	pelvis_list	pelvis_rotation	pelvis_tx	pelvis_ty	pelvis_tz	hip_flexion_r	hip_adduction_r	hip_rotation_r	knee_angle_r	knee_angle_r_beta	ankle_angle_r	subtalar_angle_r	mtp_angle_r	hip_flexion_l	hip_adduction_l	hip_rotation_l	knee_angle_l	knee_angle_l_beta	ankle_angle_l	subtalar_angle_l	mtp_angle_l	lumbar_extension	lumbar_bending	lumbar_rotation	arm_flex_r	arm_add_r	arm_rot_r	elbow_flex_r	pro_sup_r	wrist_flex_r	wrist_dev_r	arm_flex_l	arm_add_l	arm_rot_l	elbow_flex_l	pro_sup_l	wrist_flex_l	wrist_dev_l
      4.97500000	     -3.95786955	     -0.34896503	     -1.66524249	     -0.10318135	      1.43997541	     -0.86379786	     -9.58591775	     -6.96959045	    -23.60264722	     12.28686284	      0.21444621	    -38.09522807	      0.00000000	      0.00000000	     -8.78233043	    -10.97159591	    -17.82459142	     13.53792419	      0.23628135	    -37.28717216	      0.00000000	      0.00000000	      3.63850119	      2.25887833	      2.23817797	    -35.00430885	    -49.91107796	     29.70215023	     95.22777871	     87.92334863	      0.00000000	      0.00000000	    -20.72097192	    -55.05193079	     41.55726683	     97.16596297	     87.81496298	      0.00000000	      0.00000000
      4.98000000	     -4.16384525	     -0.38341457	     -1.82188508	     -0.10369570	      1.43938374	     -0.86316184	     -9.17989325	     -6.96257401	    -22.92980929	     12.02568896	      0.20988787	    -38.11650878	      0.00000000	      0.00000000	     -8.57214140	    -11.12034759	    -17.79561579	     13.02100669	      0.22725944	    -37.24303544	      0.00000000	      0.00000000	      3.71430894	      2.27857885	      2.45135216	    -35.16280251	    -49.84850548	     29.59225000	     95.26058851	     87.91349752	      0.00000000	      0.00000000	    -20.95524187	    -54.85842346	     41.18020433	     97.20178304	     87.80446112	      0.00000000	      0.00000000
      4.98500000	     -4.22559133	     -0.47231046	     -1.91499763	     -0.10404836	      1.43878610	     -0.86262999	     -9.01669064	     -6.86267576	    -22.27238303	     11.60595588	      0.20256214	    -38.04888125	      0.00000000	      0.00000000	     -8.51114892	    -11.32722738	    -17.70552720	     12.48861802	      0.21796750	    -37.07559161	      0.00000000	      0.00000000	      3.63560805	      2.35389939	      2.57965617	    -35.38238509	    -49.79019708	     29.34787408	     95.38181738	     87.91452484	      0.00000000	      0.00000000	    -21.31470735	    -54.62806043	     40.55061733	     97.25000332	     87.81223142	      0.00000000	      0.00000000
      4.99000000	     -4.42547080	     -0.55047340	     -2.04883145	     -0.10437410	      1.43773880	     -0.86197932	     -8.62444536	     -6.84930827	    -22.26107693	     11.37237125	      0.19848532	    -37.95492797	      0.00000000	      0.00000000	     -8.26047785	    -11.55809827	    -17.81050137	     12.10204352	      0.21122051	    -36.95029986	      0.00000000	      0.00000000	      3.72578834	      2.40542051	      2.73272758	    -35.46897373	    -49.73947531	     29.36998934	     95.42785194	     87.91734470	      0.00000000	      0.00000000	    -21.40819610	    -54.54022807	     40.42069483	     97.29798770	     87.80821337	      0.00000000	      0.00000000
      4.99500000	     -4.54173888	     -0.58893808	     -2.11242355	     -0.10498052	      1.43652709	     -0.86155100	     -8.33543464	     -6.87394951	    -22.05113947	     11.11736526	      0.19403463	    -37.88131534	      0.00000000	      0.00000000	     -8.08783673	    -11.72645169	    -17.86723883	     11.60795878	      0.20259710	    -36.75771974	      0.00000000	      0.00000000	      3.69788250	      2.43403042	      2.84330855	    -35.57926693	    -49.71464239	     29.30214199	     95.45266510	     87.91607956	      0.00000000	      0.00000000	    -21.53889041	    -54.44901753	     40.21120796	     97.34174971	     87.80275235	      0.00000000	      0.00000000
      5.00000000	     -4.71559340	     -0.67097390	     -2.10335353	     -0.10565428	      1.43504807	     -0.86114026	     -8.00083323	     -6.82918885	    -21.99007471	     10.84391091	      0.18926195	    -37.75551957	      0.00000000	      0.00000000	     -7.80056311	    -11.97452145	    -17.84790745	     11.19271279	      0.19534969	    -36.57927516	      0.00000000	      0.00000000	      3.68241887	      2.48465757	      2.82843728	    -35.66556273	    -49.67296280	     29.19582459	     95.50124688	     87.91726740	      0.00000000	      0.00000000	    -21.68285573	    -54.36481519	     39.99969316	     97.36313032	     87.80067208	      0.00000000	      0.00000000
      5.00500000	     -4.78476816	     -0.71300472	     -2.16594146	     -0.10644127	      1.43341794	     -0.86065143	     -7.75970472	     -6.85795956	    -21.99075768	     10.55346644	      0.18419274	    -37.55656355	      0.00000000	      0.00000000	     -7.62095539	    -12.17961743	    -17.89485283	     10.84601707	      0.18929871	    -36.42370588	      0.00000000	      0.00000000	      3.52590580	      2.49976811	      2.87568875	    -35.69852526	    -49.64059283	     29.14295662	     95.51727533	     87.91899762	      0.00000000	      0.00000000	    -21.78719825	    -54.28336078	     39.78934553	     97.39813426	     87.79653626	      0.00000000	      0.00000000
      5.01000000	     -4.96087352	     -0.76856696	     -2.14044305	     -0.10674182	      1.43141103	     -0.86022022	     -7.46324943	     -6.85329738	    -22.11704601	     10.26689753	      0.17919117	    -37.35259036	      0.00000000	      0.00000000	     -7.32275980	    -12.41503991	    -18.02319707	     10.48877481	      0.18306365	    -36.22243126	      0.00000000	      0.00000000	      3.55432389	      2.51371794	      2.80359540	    -35.74597735	    -49.58561207	     29.11744671	     95.56155898	     87.91902520	      0.00000000	      0.00000000	    -21.93384374	    -54.26694288	     39.75176528	     97.42989527	     87.79829308	      0.00000000	      0.00000000
      5.01500000	     -5.11340907	     -0.80947757	     -2.20560815	     -0.10744763	      1.42916872	     -0.85970286	     -7.13305264	     -6.89195501	    -22.25435552	      9.99689880	      0.17447880	    -37.11978414	      0.00000000	      0.00000000	     -7.03703493	    -12.62576470	    -18.20396319	     10.18014439	      0.17767704	    -36.03527326	      0.00000000	      0.00000000	      3.50832930	      2.53191828	      2.82650325	    -35.77584785	    -49.57662776	     29.08926840	     95.55990294	     87.91851396	      0.00000000	      0.00000000	    -22.05096096	    -54.24706781	     39.63464403	     97.46499051	     87.79381544	      0.00000000	      0.00000000
      5.02000000	     -5.27451695	     -0.86516696	     -2.26479757	     -0.10764154	      1.42659673	     -0.85913057	     -6.84155346	     -6.90299764	    -22.42610250	      9.70550655	      0.16939304	    -36.84880308	      0.00000000	      0.00000000	     -6.78188948	    -12.86288991	    -18.50526769	      9.86824864	      0.17223343	    -35.80269389	      0.00000000	      0.00000000	      3.51816409	      2.54353107	      2.85928719	    -35.87017037	    -49.54043393	     29.06388461	     95.55054814	     87.91882435	      0.00000000	      0.00000000	    -22.24635459	    -54.23492125	     39.52497347	     97.50000982	     87.79170417	      0.00000000	      0.00000000
      5.02500000	     -5.31523288	     -0.87980354	     -2.17534813	     -0.10868734	      1.42400334	     -0.85880163	     -6.63580985	     -6.96275290	    -22.60788010	      9.47388090	      0.16535041	    -36.56858628	      0.00000000	      0.00000000	     -6.48077335	    -13.08543789	    -18.64386018	      9.67871382	      0.16892542	    -35.61186095	      0.00000000	      0.00000000	      3.29890403	      2.51375402	      2.71846841	    -35.78984191	    -49.46654641	     28.98955040	     95.56729674	     87.91690455	      0.00000000	      0.00000000	    -22.27435401	    -54.26996854	     39.43833130	     97.54795578	     87.79118800	      0.00000000	      0.00000000
